    <svg version="1.1" id="Layer_1" xmlns="http://www.w3.org/2000/svg" xmlns:xlink="http://www.w3.org/1999/xlink" x="0px" y="0px"
	 viewBox="0 0 400.7 244.2" xml:space="preserve">
    <g>
        <path d="M148.3,160.9c-6.4,0-12.4-1.2-18-3.6c-5.6-2.4-10.5-5.7-14.7-9.9c-4.2-4.2-7.5-9.2-9.9-14.9c-2.4-5.7-3.7-11.8-3.7-18.2
            c0-6.4,1.2-12.5,3.7-18.2c2.4-5.7,5.8-10.6,9.9-14.9c4.2-4.2,9.1-7.5,14.7-9.9c5.6-2.4,11.6-3.6,18-3.6c6.3,0,12.3,1.2,17.9,3.6
            c5.7,2.4,10.6,5.7,14.8,9.9c4.2,4.2,7.5,9.2,9.9,14.9c2.4,5.7,3.7,11.8,3.7,18.2c0,6.4-1.2,12.5-3.7,18.2
            c-2.4,5.7-5.8,10.7-9.9,14.9c-4.2,4.2-9.1,7.5-14.8,9.9C160.6,159.7,154.6,160.9,148.3,160.9z M148.2,83.7c-3.7,0-7.3,0.8-10.6,2.4
            c-3.4,1.6-6.3,3.8-8.8,6.5c-2.5,2.7-4.5,6-5.9,9.7c-1.4,3.7-2.1,7.7-2.1,11.9c0,4.2,0.7,8.2,2.1,11.9c1.4,3.7,3.4,7,5.9,9.8
            s5.5,5,8.8,6.6c3.4,1.6,6.9,2.4,10.6,2.4s7.3-0.8,10.6-2.4s6.3-3.8,8.7-6.6c2.5-2.8,4.4-6.1,5.8-9.8s2.1-7.7,2.1-11.9
            c0-4.2-0.7-8.2-2.1-11.9c-1.4-3.7-3.4-7-5.8-9.7c-2.5-2.7-5.4-4.9-8.7-6.5S151.9,83.7,148.2,83.7z"/>
        <path d="M250.1,160.9c-6.4,0-12.4-1.2-18-3.6c-5.6-2.4-10.5-5.7-14.7-9.9c-4.2-4.2-7.5-9.2-9.9-14.9c-2.4-5.7-3.7-11.8-3.7-18.2
            c0-6.4,1.2-12.5,3.7-18.2c2.4-5.7,5.8-10.6,9.9-14.9c4.2-4.2,9.1-7.5,14.7-9.9c5.6-2.4,11.6-3.6,18-3.6c6.3,0,12.3,1.2,17.9,3.6
            c5.7,2.4,10.6,5.7,14.8,9.9c4.2,4.2,7.5,9.2,9.9,14.9c2.4,5.7,3.7,11.8,3.7,18.2c0,6.4-1.2,12.5-3.7,18.2
            c-2.4,5.7-5.8,10.7-9.9,14.9c-4.2,4.2-9.1,7.5-14.8,9.9C262.4,159.7,256.4,160.9,250.1,160.9z M250,83.7c-3.7,0-7.3,0.8-10.6,2.4
            c-3.4,1.6-6.3,3.8-8.8,6.5c-2.5,2.7-4.5,6-5.9,9.7c-1.4,3.7-2.1,7.7-2.1,11.9c0,4.2,0.7,8.2,2.1,11.9c1.4,3.7,3.4,7,5.9,9.8
            s5.5,5,8.8,6.6c3.4,1.6,6.9,2.4,10.6,2.4s7.3-0.8,10.6-2.4s6.3-3.8,8.7-6.6c2.5-2.8,4.4-6.1,5.8-9.8c1.4-3.7,2.1-7.7,2.1-11.9
            c0-4.2-0.7-8.2-2.1-11.9c-1.4-3.7-3.4-7-5.8-9.7c-2.5-2.7-5.4-4.9-8.7-6.5S253.7,83.7,250,83.7z"/>
        <path d="M399.7,23.1v135.6h-14.8l-3.9-9.3c-3.7,3.6-8,6.4-12.7,8.5c-4.8,2-10.2,3.1-16.4,3.1c-6.4,0-12.3-1.2-17.7-3.6
            c-5.4-2.4-10.1-5.7-14.1-9.9c-4-4.2-7.1-9.2-9.4-14.9c-2.2-5.7-3.4-11.8-3.4-18.2c0-6.4,1.1-12.5,3.4-18.2
            c2.2-5.7,5.4-10.6,9.4-14.9c4-4.2,8.7-7.5,14.1-9.9c5.4-2.4,11.3-3.6,17.7-3.6c6.4,0,12,1,16.8,3.1c4.8,2,8.9,4.9,12.3,8.6V23.1
            H399.7z M353.3,145c3.9,0,7.4-0.6,10.7-1.9c3.3-1.2,6.2-3.1,8.7-5.7c2.5-2.5,4.5-5.7,5.9-9.6c1.4-3.8,2.1-8.4,2.1-13.6
            c0-5.6-0.7-10.3-2.1-14.1c-1.4-3.8-3.4-7-5.9-9.4s-5.4-4.1-8.7-5.2c-3.3-1.1-6.9-1.6-10.7-1.6c-3.7,0-7.3,0.8-10.6,2.3
            c-3.4,1.5-6.3,3.7-8.7,6.4c-2.5,2.7-4.4,5.9-5.8,9.7s-2.1,7.7-2.1,11.9c0,4.2,0.7,8.2,2.1,11.9c1.4,3.7,3.4,7,5.8,9.8
            c2.5,2.8,5.4,5,8.7,6.6C346,144.2,349.6,145,353.3,145z"/>
    </g>
    <rect x="56" y="26.3" width="53.5" height="17.4"/>
    <rect x="56" y="80.6" width="40" height="17.4"/>
    <polygon fill="#105AB5" points="40.6,26.3 40.6,158.7 21.2,158.7 21.2,43.8 0,43.8 0,26.3 "/>
    <circle fill="#105AB5" cx="145.3" cy="211.2" r="9"/>
    <g>
        <path d="M177.1,220.4H167v-47.5h8.1l2.1,4.1c1.3-1.4,2.8-2.6,4.5-3.6c1.7-1,3.9-1.5,6.4-1.5c1,0,2.1,0.1,3.3,0.3
            c1.2,0.2,2.5,0.6,3.8,1.2c1.3,0.6,2.5,1.3,3.7,2.3c1.2,1,2.2,2.2,3,3.7c1.2-2,3-3.8,5.4-5.3c2.4-1.5,5-2.2,7.7-2.2
            c1.8,0,3.7,0.3,5.8,0.8c2,0.5,3.9,1.5,5.7,3c1.7,1.5,3.2,3.5,4.3,6.1c1.1,2.6,1.7,5.9,1.7,10v28.8h-9.5v-28.9c0-4.1-0.9-7-2.7-8.6
            c-1.8-1.6-4.1-2.4-7.1-2.4c-2.2,0-4.2,0.9-5.9,2.7s-2.5,4.6-2.5,8.4v28.8h-9.5v-28.9c0-4.1-0.9-7-2.7-8.6c-1.8-1.6-4.1-2.4-7.1-2.4
            c-2.1,0-3.9,0.8-5.5,2.3c-1.6,1.5-2.5,3.9-2.8,7.1V220.4z"/>
        <path d="M268,221.6c-3.6,0-7-0.6-10.2-1.9c-3.2-1.3-6-3.1-8.3-5.3c-2.4-2.2-4.2-4.9-5.6-7.9c-1.4-3-2-6.3-2-9.7
            c0-3.4,0.6-6.7,1.9-9.7c1.3-3,3-5.7,5.2-7.9c2.2-2.2,4.8-4,7.7-5.3s6.1-1.9,9.4-1.9c3.4,0,6.6,0.6,9.5,1.7c2.9,1.1,5.4,2.9,7.5,5.3
            c2.1,2.4,3.8,5.4,5,9.1c1.2,3.7,1.8,8.1,1.8,13.1h-37.3c0.5,1.7,1.3,3.3,2.3,4.8c1,1.5,2.3,2.8,3.7,3.9c1.4,1.1,3,1.9,4.8,2.5
            c1.8,0.6,3.6,0.9,5.6,0.9c2.7,0,5.1-0.5,7.4-1.4c2.3-0.9,4.2-2.1,5.8-3.7l6.3,6c-2.4,2.3-5.4,4.2-9,5.6
            C276.1,220.9,272.2,221.6,268,221.6z M266.1,180.5c-1.6,0-3.1,0.3-4.6,0.9c-1.4,0.6-2.8,1.4-4,2.5c-1.2,1.1-2.3,2.3-3.1,3.8
            c-0.9,1.5-1.5,3-1.9,4.8H279c-0.1-1.6-0.5-3.1-1.2-4.6c-0.6-1.5-1.5-2.7-2.6-3.8c-1.1-1.1-2.4-1.9-3.9-2.6
            C269.8,180.8,268.1,180.5,266.1,180.5z"/>
        <path d="M309.7,220.4h-10.2v-47.5h8.1l2.1,4.2c1.7-1.5,3.7-2.8,6.1-3.8c2.4-1,5-1.5,7.8-1.5c1.8,0,3.9,0.3,6.2,0.8
            c2.3,0.5,4.5,1.5,6.4,3c2,1.5,3.7,3.5,5,6.1c1.4,2.6,2,5.9,2,10v28.8h-9.6v-28.9c0-2-0.3-3.8-1-5.2c-0.7-1.4-1.5-2.6-2.6-3.4
            c-1.1-0.9-2.3-1.5-3.7-1.8c-1.4-0.4-2.8-0.5-4.2-0.5c-1.1,0-2.4,0.2-3.8,0.6c-1.4,0.4-2.8,1-4,1.9s-2.3,2-3.2,3.4
            c-0.9,1.4-1.3,3-1.3,5V220.4z"/>
        <path d="M389.6,216.1c-1.7,1.5-3.8,2.8-6.1,3.8c-2.3,1-4.9,1.5-7.8,1.5c-1.8,0-3.9-0.2-6.2-0.7c-2.3-0.5-4.5-1.5-6.4-2.9
            c-2-1.5-3.7-3.5-5-6c-1.4-2.5-2-5.9-2-10v-28.9h9.6v28.9c0,2,0.3,3.8,1,5.2c0.7,1.4,1.5,2.6,2.6,3.4c1.1,0.9,2.3,1.5,3.7,1.9
            c1.4,0.4,2.8,0.6,4.3,0.6c1.1,0,2.4-0.2,3.8-0.6c1.4-0.4,2.8-1,4-1.9c1.3-0.9,2.3-2,3.2-3.4c0.9-1.4,1.3-3.1,1.3-5.1v-29h10.2v47.5
            h-8.1L389.6,216.1z"/>
    </g>
    </svg>