<svg xmlns="http://www.w3.org/2000/svg" version="1.1" xmlns:xlink="http://www.w3.org/1999/xlink" width="1000" height="1000"><metadata><rdf:RDF xmlns:rdf="http://www.w3.org/1999/02/22-rdf-syntax-ns#" xmlns:dc="http://purl.org/dc/elements/1.1/"><rdf:Description><dc:creator>RealFaviconGenerator</dc:creator><dc:source>https://realfavicongenerator.net</dc:source></rdf:Description></rdf:RDF></metadata><style>
    #light-icon {
      display: inline;
    }
    #dark-icon {
      display: none;
    }

    @media (prefers-color-scheme: dark) {
      #light-icon {
        display: none;
      }
      #dark-icon {
        display: inline;
      }
    }
  </style><g id="light-icon"><svg xmlns="http://www.w3.org/2000/svg" version="1.1" xmlns:xlink="http://www.w3.org/1999/xlink" width="1000" height="1000"><g><g transform="matrix(1.6666666666666667,0,0,1.6666666666666667,0,0)"><svg xmlns="http://www.w3.org/2000/svg" width="600" height="600" viewBox="0 0 600 600" fill="none"><path d="M190.461 178.576C223.872 252.779 259.832 323.299 298.34 390.138C335.175 453.147 374.275 515.401 415.64 576.899C380.051 591.779 340.986 600 300 600C244.61 600 192.726 584.987 148.194 558.811C155.33 528.341 161.774 495.624 167.526 460.658C174.888 415.91 180.552 369.746 184.516 322.166C188.48 274.02 190.461 226.156 190.461 178.576Z" fill="#16284D"></path><path d="M495.96 72.8389C559.675 127.851 600 209.216 600 300C600 407.024 543.956 500.958 459.616 554.058C458.75 542.008 457.939 529.567 457.185 516.734C455.486 487.28 454.636 456.693 454.636 424.973C454.636 379.092 456.335 332.644 459.732 285.631C463.13 238.051 468.794 192.736 476.722 149.688C482.194 121.955 488.608 96.3397 495.96 72.8389Z" fill="#16284D"></path><path d="M100.59 75.8633C103.112 88.5954 105.887 103.857 108.915 121.649C113.445 148.272 117.127 179.142 119.958 214.261C123.356 248.813 125.055 285.348 125.055 323.865C125.055 383.34 121.94 433.47 115.711 474.253C112.745 495.319 109.777 513.742 106.811 529.523C41.4966 474.492 0 392.092 0 300C0 210.866 38.8728 130.811 100.59 75.8633Z" fill="#16284D"></path><path d="M300 0C343.128 0 384.129 9.10178 421.19 25.4873C413.09 69.9618 406.683 114.194 401.971 158.185C396.874 205.765 394.326 253.062 394.326 300.075C394.326 327.83 395.175 355.586 396.874 383.341C398.573 411.096 401.405 438.851 405.369 466.605C382.718 430.354 359.216 388.439 334.865 340.858C310.515 293.278 287.297 241.733 265.212 186.223C243.153 130.779 223.636 73.6393 206.661 14.8047C236.038 5.19615 267.412 0 300 0Z" fill="#16284D"></path></svg></g></g></svg></g><g id="dark-icon"><svg xmlns="http://www.w3.org/2000/svg" version="1.1" xmlns:xlink="http://www.w3.org/1999/xlink" width="1000" height="1000"><g clip-path="url(#SvgjsClipPath1066)"><rect width="1000" height="1000" fill="#ffffff"></rect><g transform="matrix(1.3333333333333333,0,0,1.3333333333333333,100,100)"><svg xmlns="http://www.w3.org/2000/svg" width="600" height="600" viewBox="0 0 600 600" fill="none"><path d="M190.461 178.576C223.872 252.779 259.832 323.299 298.34 390.138C335.175 453.147 374.275 515.401 415.64 576.899C380.051 591.779 340.986 600 300 600C244.61 600 192.726 584.987 148.194 558.811C155.33 528.341 161.774 495.624 167.526 460.658C174.888 415.91 180.552 369.746 184.516 322.166C188.48 274.02 190.461 226.156 190.461 178.576Z" fill="#16284D"></path><path d="M495.96 72.8389C559.675 127.851 600 209.216 600 300C600 407.024 543.956 500.958 459.616 554.058C458.75 542.008 457.939 529.567 457.185 516.734C455.486 487.28 454.636 456.693 454.636 424.973C454.636 379.092 456.335 332.644 459.732 285.631C463.13 238.051 468.794 192.736 476.722 149.688C482.194 121.955 488.608 96.3397 495.96 72.8389Z" fill="#16284D"></path><path d="M100.59 75.8633C103.112 88.5954 105.887 103.857 108.915 121.649C113.445 148.272 117.127 179.142 119.958 214.261C123.356 248.813 125.055 285.348 125.055 323.865C125.055 383.34 121.94 433.47 115.711 474.253C112.745 495.319 109.777 513.742 106.811 529.523C41.4966 474.492 0 392.092 0 300C0 210.866 38.8728 130.811 100.59 75.8633Z" fill="#16284D"></path><path d="M300 0C343.128 0 384.129 9.10178 421.19 25.4873C413.09 69.9618 406.683 114.194 401.971 158.185C396.874 205.765 394.326 253.062 394.326 300.075C394.326 327.83 395.175 355.586 396.874 383.341C398.573 411.096 401.405 438.851 405.369 466.605C382.718 430.354 359.216 388.439 334.865 340.858C310.515 293.278 287.297 241.733 265.212 186.223C243.153 130.779 223.636 73.6393 206.661 14.8047C236.038 5.19615 267.412 0 300 0Z" fill="#16284D"></path></svg></g></g><defs><clipPath id="SvgjsClipPath1066"><rect width="1000" height="1000" x="0" y="0" rx="350" ry="350"></rect></clipPath></defs></svg></g></svg>